HIERARCHY
ROOT pelvis
{
  OFFSET 0 100 0
  CHANNELS 6 Xposition Yposition Zposition Zrotation Xrotation Yrotation
  JOINT pelvis_right_femur
  {
    OFFSET -10.78128 -3.44521 -0.5502486
    CHANNELS 3 Zrotation Xrotation Yrotation
    JOINT right_femur_tibia
    {
      OFFSET -0.8047443 -44.0398 -0.1307829
      CHANNELS 3 Zrotation Xrotation Yrotation
      JOINT right_tibia_foot
      {
        OFFSET 3.006224 -47.83518 -5
        CHANNELS 3 Zrotation Xrotation Yrotation
        End Site
        {
          OFFSET 0 -5 15
        }
      }
    }
  }
  JOINT pelvis_left_femur
  {
    OFFSET 10.78128 -3.44521 -0.5502486
    CHANNELS 3 Zrotation Xrotation Yrotation
    JOINT left_femur_tibia
    {
      OFFSET 0.8047443 -44.0398 -0.1307829
      CHANNELS 3 Zrotation Xrotation Yrotation
      JOINT left_tibia_foot
      {
        OFFSET -4.370144 -48.10324 -4.275266
        CHANNELS 3 Zrotation Xrotation Yrotation
        End Site
        {
          OFFSET 0 -5 15
        }
      }
    }
  }
  JOINT pelvis_spine1
  {
    OFFSET 0 6.468898 -3.129235
    CHANNELS 3 Zrotation Xrotation Yrotation
    JOINT spine1
    {
      OFFSET 0 23.15396 4.99043
      CHANNELS 3 Zrotation Xrotation Yrotation
      JOINT spine2
      {
        OFFSET 0 20.79997 -5.064912
        CHANNELS 3 Zrotation Xrotation Yrotation
        JOINT neck
        {
          OFFSET 0 14.38658 9.616178
          CHANNELS 3 Zrotation Xrotation Yrotation
          End Site
          {
            OFFSET 0 20 0
          }
        }
      }
      JOINT right_manubrium
      {
        OFFSET -5.722621 16.35077 3.967754
        CHANNELS 3 Zrotation Xrotation Yrotation
        JOINT right_clavicle
        {
          OFFSET -13.16364 1.694482 -4.693211
          CHANNELS 3 Zrotation Xrotation Yrotation
          JOINT right_humerus
          {
            OFFSET -28.5034 -0.3100689 -2.792744
            CHANNELS 3 Zrotation Xrotation Yrotation
            JOINT right_radius
            {
              OFFSET -25.15693 0.02248979 -1.271978
              CHANNELS 3 Zrotation Xrotation Yrotation
              End Site
              {
                OFFSET -15 0 0
              }
            }
          }
        }
      }
      JOINT left_manubrium
      {
        OFFSET 5.722621 16.35077 3.967754
        CHANNELS 3 Zrotation Xrotation Yrotation
        JOINT left_clavicle
        {
          OFFSET 13.16364 1.694482 -4.693211
          CHANNELS 3 Zrotation Xrotation Yrotation
          JOINT left_humerus
          {
            OFFSET 29.39168 -1.063119 -2.237045
            CHANNELS 3 Zrotation Xrotation Yrotation
            JOINT left_radius
            {
              OFFSET 24.59957 -0.9528479 0.9047498
              CHANNELS 3 Zrotation Xrotation Yrotation
              End Site
              {
                OFFSET 15 -0 -0
              }
            }
          }
        }
      }
    }
  }
}
MOTION
Frames: 9
Frame Time: 0.0416666666667
0 103.5113 0 0.1136806 -1.199881 0.04200038 4.23143 -20.97617 7.600862 -0 38.15784 -0 -4.901082 -14.51409 -2.998418 -6.351237 10.25794 -20.80317 -0 7.601386 -0 8.251347 -17.96402 24.88284 -3.35127 -2.890626 3.847079 2.623306 9.597314 -7.866483 1.386472 22.20132 6.643457 3.002183 -23.27554 9.202208 6.511774 -18.82677 11.94005 84.74327 33.10365 -18.73949 -0 0 15.53904 -9.360134 9.492009 4.779092 6.80416 -20.07226 -1.224967 -92.81383 24.20842 20.1983 0 0 -14.08412 11.87849 18.85367 -0.3155042
0.2859395 104.1278 2.106154 0.03655748 -1.181956 0.0922044 4.250083 -21.66714 7.199222 -0 37.11482 -0 -4.964922 -14.11972 -2.989607 -6.212385 10.56238 -20.39859 -0 7.831494 -0 7.751435 -18.47818 24.37625 -3.326322 -2.802589 3.709479 2.677174 9.485943 -7.914506 1.425185 22.22763 6.596199 2.976808 -23.18418 9.181938 6.349751 -18.57915 11.84493 84.78609 32.60345 -18.87024 -0 0 15.30063 -9.625128 9.567495 4.783892 6.978525 -20.22233 -1.149489 -92.59453 24.06681 19.66533 0 0 -14.07062 12.01311 19.0025 -0.6283589
0.5975794 104.5852 4.429506 -0.1174801 0.2387264 0.1735401 4.904061 -24.50203 7.193427 -0 32.00814 -0 -4.933731 -12.67427 -2.397394 -6.253864 10.96252 -20.14128 -0 7.174099 -0 8.204002 -19.76567 24.33037 -3.435287 -2.774943 3.977689 3.075203 9.477039 -8.136452 1.442629 21.56231 6.773197 3.204617 -24.40734 9.418219 6.346278 -18.68161 11.81383 84.81136 33.31233 -19.37272 -0 0 15.24214 -9.142499 9.685927 4.692246 7.507141 -20.64961 -0.744895 -92.60589 23.23638 19.58103 0 0 -15.12629 12.9947 18.0818 -1.726764
0.9061691 104.88 7.060915 -0.3755502 1.314403 0.3163857 5.527337 -27.07192 6.955364 -0 27.8464 -0 -5.095818 -10.97984 -2.000834 -6.135913 11.60505 -19.51598 -0 7.210395 -0 7.927521 -20.88171 23.72256 -3.392055 -2.640618 3.978221 3.38999 9.394245 -8.347602 1.44566 21.06497 6.934039 3.374445 -25.23664 9.57698 6.217742 -18.51216 11.71339 84.98898 33.61475 -19.86463 -0 0 14.80307 -8.98438 9.812919 4.701693 7.929671 -21.07231 -0.4461296 -92.34285 22.58852 19.06597 0 0 -16.13161 13.57526 17.30651 -2.435228
1.200011 105.0722 10.08639 -0.7475208 2.334292 0.5429204 6.272983 -29.57112 6.726442 -0 24.04357 -0 -5.41657 -9.018892 -1.672228 -5.925473 12.41008 -18.69929 -0 7.816967 -0 7.176922 -21.80015 22.74023 -3.20631 -2.446324 3.846842 3.677645 9.288858 -8.571466 1.420276 20.57384 7.134349 3.545816 -25.99465 9.717067 6.042239 -18.2313 11.58611 85.31139 33.88588 -20.41015 -0 0 14.14273 -8.889295 9.933298 4.762887 8.257905 -21.48702 -0.2099147 -91.98127 22.06757 18.4486 0 0 -17.25015 13.8399 16.4323 -2.767799
1.466709 105.2273 13.58502 -1.244035 3.172979 0.8613582 7.113081 -31.71565 6.512874 -0 20.91825 -0 -5.917962 -6.976222 -1.442237 -5.595539 13.31842 -17.69923 -0 9.290548 -0 5.822688 -22.32749 21.2991 -2.833631 -2.197277 3.567623 3.907733 9.164728 -8.792328 1.366077 20.14128 7.349254 3.695651 -26.59775 9.811133 5.807307 -17.83034 11.4402 85.79517 34.01688 -20.99512 -0 0 13.2805 -8.896666 10.04534 4.861903 8.438038 -21.85403 -0.08064188 -91.55273 21.74166 17.76526 0 0 -18.31338 13.73169 15.54575 -2.670061
1.70097 105.4313 17.61753 -1.848237 3.777487 1.26129 8.022306 -33.24342 6.359121 -0 18.62516 -0 -6.581569 -5.072735 -1.308061 -5.153697 14.18664 -16.585 -0 11.84982 -0 3.896425 -22.24811 19.42509 -2.258603 -1.907749 3.179484 4.064049 9.036819 -8.988175 1.282139 19.78692 7.561352 3.812078 -27.03726 9.845773 5.528894 -17.34908 11.29875 86.4281 34.01578 -21.59197 -0 0 12.29388 -8.978078 10.14193 4.986036 8.414407 -22.11963 -0.092562 -91.11875 21.65638 17.13266 0 0 -19.20303 13.22684 14.65379 -2.101334
1.906443 105.7844 22.21436 -2.509054 4.082524 1.706663 8.91648 -33.85511 6.251331 -0 17.2578 -0 -7.364896 -3.576442 -1.263404 -4.620524 14.79871 -15.42453 -0 15.72205 -0 1.532434 -21.33995 17.21071 -1.496256 -1.594375 2.743599 4.130876 8.922677 -9.127335 1.170606 19.54807 7.74214 3.878891 -27.28435 9.80004 5.228077 -16.82687 11.19074 87.17047 33.88327 -22.15448 -0 0 11.26224 -9.125261 10.22432 5.131384 8.140995 -22.23454 -0.2755032 -90.72408 21.82406 16.64193 0 0 -19.79755 12.36068 13.77502 -1.097698
2.096313 106.3923 27.3591 -3.130891 4.038302 2.134099 9.649159 -33.25956 6.121806 -0 16.77191 -0 -8.194783 -2.760626 -1.291819 -4.042092 14.85916 -14.288 -0 21.06783 -0 -0.9976519 -19.4533 14.85084 -0.614843 -1.277781 2.356608 4.099174 8.845843 -9.171683 1.037685 19.46797 7.857271 3.884199 -27.30755 9.651168 4.93947 -16.31087 11.14949 87.94276 33.64511 -22.61927 -0 0 10.27364 -9.34022 10.30527 5.302555 7.601903 -22.16769 -0.6352954 -90.40482 22.2104 16.3672 0 0 -20.00897 11.2355 12.93864 0.2203993
